<?xml version="1.0" encoding="UTF-8" standalone="no"?>
<!-- Created with Inkscape (http://www.inkscape.org/) -->

<svg
   xmlns:dc="http://purl.org/dc/elements/1.1/"
   xmlns:cc="http://creativecommons.org/ns#"
   xmlns:rdf="http://www.w3.org/1999/02/22-rdf-syntax-ns#"
   xmlns:svg="http://www.w3.org/2000/svg"
   xmlns="http://www.w3.org/2000/svg"
   xmlns:sodipodi="http://sodipodi.sourceforge.net/DTD/sodipodi-0.dtd"
   xmlns:inkscape="http://www.inkscape.org/namespaces/inkscape"
   width="300"
   height="300"
   id="svg2"
   version="1.1"
   inkscape:version="0.48.3.1 r9886"
   sodipodi:docname="Nouveau document 1">
  <defs
     id="defs4" />
  <sodipodi:namedview
     id="base"
     pagecolor="#ffffff"
     bordercolor="#666666"
     borderopacity="1.0"
     inkscape:pageopacity="0.0"
     inkscape:pageshadow="2"
     inkscape:zoom="1.979899"
     inkscape:cx="161.88647"
     inkscape:cy="156.33413"
     inkscape:document-units="px"
     inkscape:current-layer="layer1"
     showgrid="false"
     inkscape:window-width="1215"
     inkscape:window-height="1000"
     inkscape:window-x="65"
     inkscape:window-y="24"
     inkscape:window-maximized="1" />
  <metadata
     id="metadata7">
    <rdf:RDF>
      <cc:Work
         rdf:about="">
        <dc:format>image/svg+xml</dc:format>
        <dc:type
           rdf:resource="http://purl.org/dc/dcmitype/StillImage" />
        <dc:title></dc:title>
      </cc:Work>
    </rdf:RDF>
  </metadata>
  <g
     inkscape:label="Calque 1"
     inkscape:groupmode="layer"
     id="layer1"
     transform="translate(0,-752.36218)">
    <path
       style="fill:#000000"
       d="m 233.27968,1022.649 c -3.46445,-7.7066 -7.31542,-14.6251 -8.55768,-15.3743 -1.24228,-0.7493 -7.43249,-9.10379 -13.75603,-18.56584 -9.62898,-14.40802 -11.22539,-19.27827 -9.82379,-29.96904 0.92046,-7.02101 0.12785,-19.77805 -1.76138,-28.349 -2.95219,-13.39344 -4.11983,-15.04493 -8.30805,-11.75074 -2.6802,2.10809 -17.32993,9.66102 -32.55494,16.78431 -15.22502,7.12326 -27.68185,13.94359 -27.68185,15.15627 0,1.21268 -2.35926,2.20488 -5.24279,2.20488 -4.84051,0 -18.42265,4.95658 -22.4681,8.1995 -0.95256,0.7634 -7.59751,3.80934 -14.766553,6.76865 -7.169043,2.9593 -16.843123,8.15812 -21.497957,11.55279 -4.654833,3.39495 -9.128937,6.17254 -9.942448,6.17254 -4.366458,0 -4.540423,-12.82621 -0.360543,-26.58227 2.614913,-8.60578 4.809914,-27.72883 4.877778,-42.49573 0.136511,-29.70456 6.735825,-44.7609 26.522231,-60.51053 17.568482,-13.98418 56.200952,-32.45067 101.608352,-48.56923 4.67719,-1.66031 18.12509,-10.06826 29.88423,-18.68436 12.78694,-9.36917 24.48765,-15.66564 29.11148,-15.66564 6.96996,0 7.54,1.00606 5.78895,10.21671 -1.06825,5.6192 -4.45636,27.38082 -7.52912,48.35915 -4.82266,32.92525 -7.18107,40.6255 -17.24226,56.29596 -10.76775,16.77089 -12.60668,27.50881 -5.52284,32.24895 8.74049,5.84868 22.5775,35.01064 26.12672,55.06293 3.07074,17.34908 -1.42667,58.73624 -6.55072,60.28304 -2.36742,0.7143 -6.6739,-4.6055 -10.35269,-12.789 z M 115.32677,935.2868 c 4.7198,-2.43239 8.58147,-4.97908 8.58147,-5.65929 0,-3.10738 -37.263884,-31.08259 -39.285251,-29.49269 -1.254601,0.98678 -2.281088,11.26875 -2.281088,22.84885 l 0,21.05467 12.2017,-2.1645 c 6.710939,-1.19048 16.063359,-4.15464 20.783169,-6.58704 z m 66.19229,-29.03927 c 6.41652,-3.11912 11.6664,-7.11522 11.6664,-8.88023 0,-1.76502 3.11747,-4.74045 6.92772,-6.61205 15.6874,-7.70566 2.36781,-41.33423 -19.05123,-48.0995 -15.1337,-4.78004 -38.55669,1.26989 -57.12926,14.75597 -14.64648,10.63522 -14.83254,10.99742 -12.75102,24.82104 3.71997,24.7046 7.19212,26.71613 50.42019,29.20991 4.53794,0.26182 13.50067,-2.07602 19.9172,-5.19514 z m -32.74129,-16.12582 c -7.31315,-4.79432 -7.62446,-5.94619 -3.45581,-12.78717 5.68899,-9.33595 20.87396,-14.18909 28.60531,-9.14231 8.64075,5.6404 6.53379,15.47733 -4.65759,21.74525 -11.99978,6.72064 -10.54134,6.70753 -20.49191,0.18417 z m 75.5294,-60.36293 0.0531,-12.68616 -12.98948,2.96478 c -22.4383,5.12141 -23.14539,6.99878 -6.91095,18.34902 16.81097,11.75331 19.76755,10.4681 19.84739,-8.62764 z"
       id="path2996"
       inkscape:connector-curvature="0" />
  </g>
</svg>
